<svg width="117" height="28" viewBox="0 0 117 28" fill="none" xmlns="http://www.w3.org/2000/svg">
<g filter="url(#filter0_d_111_8)">
<path d="M4.27568 10.2C4.27568 8.46667 4.65068 6.925 5.40068 5.575C6.15068 4.20833 7.19235 3.15 8.52568 2.4C9.87568 1.63333 11.4007 1.25 13.1007 1.25C15.184 1.25 16.9674 1.8 18.4507 2.9C19.934 4 20.9257 5.5 21.4257 7.4H16.7257C16.3757 6.66667 15.8757 6.10833 15.2257 5.725C14.5924 5.34167 13.8674 5.15 13.0507 5.15C11.734 5.15 10.6674 5.60833 9.85068 6.525C9.03402 7.44167 8.62568 8.66667 8.62568 10.2C8.62568 11.7333 9.03402 12.9583 9.85068 13.875C10.6674 14.7917 11.734 15.25 13.0507 15.25C13.8674 15.25 14.5924 15.0583 15.2257 14.675C15.8757 14.2917 16.3757 13.7333 16.7257 13H21.4257C20.9257 14.9 19.934 16.4 18.4507 17.5C16.9674 18.5833 15.184 19.125 13.1007 19.125C11.4007 19.125 9.87568 18.75 8.52568 18C7.19235 17.2333 6.15068 16.175 5.40068 14.825C4.65068 13.475 4.27568 11.9333 4.27568 10.2ZM35.4437 15L38.4687 5.05H43.0187L38.0687 19H32.7937L27.8437 5.05H32.4187L35.4437 15Z" fill="#002265"/>
<path d="M60.6181 1.525V2.975H55.7681V19H54.0181V2.975H49.1431V1.525H60.6181ZM74.4813 19.2C73.198 19.2 72.0397 18.9167 71.0063 18.35C69.9897 17.7667 69.1813 16.95 68.5813 15.9C67.998 14.8333 67.7063 13.5917 67.7063 12.175C67.7063 10.7583 68.0063 9.525 68.6063 8.475C69.2063 7.40833 70.023 6.59167 71.0563 6.025C72.0897 5.44167 73.248 5.15 74.5313 5.15C75.8147 5.15 76.973 5.44167 78.0063 6.025C79.0563 6.59167 79.873 7.40833 80.4563 8.475C81.0563 9.525 81.3563 10.7583 81.3563 12.175C81.3563 13.575 81.0563 14.8083 80.4563 15.875C79.8563 16.9417 79.0313 17.7667 77.9813 18.35C76.9313 18.9167 75.7647 19.2 74.4813 19.2ZM74.4813 17.675C75.3813 17.675 76.2147 17.475 76.9813 17.075C77.748 16.6583 78.3647 16.0417 78.8313 15.225C79.3147 14.3917 79.5563 13.375 79.5563 12.175C79.5563 10.975 79.323 9.96667 78.8563 9.15C78.3897 8.31667 77.773 7.7 77.0063 7.3C76.2397 6.88333 75.4063 6.675 74.5063 6.675C73.6063 6.675 72.773 6.88333 72.0063 7.3C71.2397 7.7 70.623 8.31667 70.1563 9.15C69.7063 9.96667 69.4813 10.975 69.4813 12.175C69.4813 13.375 69.7063 14.3917 70.1563 15.225C70.623 16.0417 71.2313 16.6583 71.9813 17.075C72.748 17.475 73.5813 17.675 74.4813 17.675ZM95.6464 19.2C94.3631 19.2 93.2047 18.9167 92.1714 18.35C91.1547 17.7667 90.3464 16.95 89.7464 15.9C89.1631 14.8333 88.8714 13.5917 88.8714 12.175C88.8714 10.7583 89.1714 9.525 89.7714 8.475C90.3714 7.40833 91.1881 6.59167 92.2214 6.025C93.2547 5.44167 94.4131 5.15 95.6964 5.15C96.9797 5.15 98.1381 5.44167 99.1714 6.025C100.221 6.59167 101.038 7.40833 101.621 8.475C102.221 9.525 102.521 10.7583 102.521 12.175C102.521 13.575 102.221 14.8083 101.621 15.875C101.021 16.9417 100.196 17.7667 99.1464 18.35C98.0964 18.9167 96.9297 19.2 95.6464 19.2ZM95.6464 17.675C96.5464 17.675 97.3797 17.475 98.1464 17.075C98.9131 16.6583 99.5297 16.0417 99.9964 15.225C100.48 14.3917 100.721 13.375 100.721 12.175C100.721 10.975 100.488 9.96667 100.021 9.15C99.5547 8.31667 98.9381 7.7 98.1714 7.3C97.4047 6.88333 96.5714 6.675 95.6714 6.675C94.7714 6.675 93.9381 6.88333 93.1714 7.3C92.4047 7.7 91.7881 8.31667 91.3214 9.15C90.8714 9.96667 90.6464 10.975 90.6464 12.175C90.6464 13.375 90.8714 14.3917 91.3214 15.225C91.7881 16.0417 92.3964 16.6583 93.1464 17.075C93.9131 17.475 94.7464 17.675 95.6464 17.675ZM112.586 0.5V19H110.836V0.5H112.586Z" fill="#002265"/>
<path d="M60.6181 1.525V2.975H55.7681V19H54.0181V2.975H49.1431V1.525H60.6181ZM74.4813 19.2C73.198 19.2 72.0397 18.9167 71.0063 18.35C69.9897 17.7667 69.1813 16.95 68.5813 15.9C67.998 14.8333 67.7063 13.5917 67.7063 12.175C67.7063 10.7583 68.0063 9.525 68.6063 8.475C69.2063 7.40833 70.023 6.59167 71.0563 6.025C72.0897 5.44167 73.248 5.15 74.5313 5.15C75.8147 5.15 76.973 5.44167 78.0063 6.025C79.0563 6.59167 79.873 7.40833 80.4563 8.475C81.0563 9.525 81.3563 10.7583 81.3563 12.175C81.3563 13.575 81.0563 14.8083 80.4563 15.875C79.8563 16.9417 79.0313 17.7667 77.9813 18.35C76.9313 18.9167 75.7647 19.2 74.4813 19.2ZM74.4813 17.675C75.3813 17.675 76.2147 17.475 76.9813 17.075C77.748 16.6583 78.3647 16.0417 78.8313 15.225C79.3147 14.3917 79.5563 13.375 79.5563 12.175C79.5563 10.975 79.323 9.96667 78.8563 9.15C78.3897 8.31667 77.773 7.7 77.0063 7.3C76.2397 6.88333 75.4063 6.675 74.5063 6.675C73.6063 6.675 72.773 6.88333 72.0063 7.3C71.2397 7.7 70.623 8.31667 70.1563 9.15C69.7063 9.96667 69.4813 10.975 69.4813 12.175C69.4813 13.375 69.7063 14.3917 70.1563 15.225C70.623 16.0417 71.2313 16.6583 71.9813 17.075C72.748 17.475 73.5813 17.675 74.4813 17.675ZM95.6464 19.2C94.3631 19.2 93.2047 18.9167 92.1714 18.35C91.1547 17.7667 90.3464 16.95 89.7464 15.9C89.1631 14.8333 88.8714 13.5917 88.8714 12.175C88.8714 10.7583 89.1714 9.525 89.7714 8.475C90.3714 7.40833 91.1881 6.59167 92.2214 6.025C93.2547 5.44167 94.4131 5.15 95.6964 5.15C96.9797 5.15 98.1381 5.44167 99.1714 6.025C100.221 6.59167 101.038 7.40833 101.621 8.475C102.221 9.525 102.521 10.7583 102.521 12.175C102.521 13.575 102.221 14.8083 101.621 15.875C101.021 16.9417 100.196 17.7667 99.1464 18.35C98.0964 18.9167 96.9297 19.2 95.6464 19.2ZM95.6464 17.675C96.5464 17.675 97.3797 17.475 98.1464 17.075C98.9131 16.6583 99.5297 16.0417 99.9964 15.225C100.48 14.3917 100.721 13.375 100.721 12.175C100.721 10.975 100.488 9.96667 100.021 9.15C99.5547 8.31667 98.9381 7.7 98.1714 7.3C97.4047 6.88333 96.5714 6.675 95.6714 6.675C94.7714 6.675 93.9381 6.88333 93.1714 7.3C92.4047 7.7 91.7881 8.31667 91.3214 9.15C90.8714 9.96667 90.6464 10.975 90.6464 12.175C90.6464 13.375 90.8714 14.3917 91.3214 15.225C91.7881 16.0417 92.3964 16.6583 93.1464 17.075C93.9131 17.475 94.7464 17.675 95.6464 17.675ZM112.586 0.5V19H110.836V0.5H112.586Z" fill="#14279B"/>
</g>
<defs>
<filter id="filter0_d_111_8" x="0.275635" y="0.5" width="116.311" height="26.7" filterUnits="userSpaceOnUse" color-interpolation-filters="sRGB">
<feFlood flood-opacity="0" result="BackgroundImageFix"/>
<feColorMatrix in="SourceAlpha" type="matrix" values="0 0 0 0 0 0 0 0 0 0 0 0 0 0 0 0 0 0 127 0" result="hardAlpha"/>
<feOffset dy="4"/>
<feGaussianBlur stdDeviation="2"/>
<feComposite in2="hardAlpha" operator="out"/>
<feColorMatrix type="matrix" values="0 0 0 0 0 0 0 0 0 0 0 0 0 0 0 0 0 0 0.25 0"/>
<feBlend mode="normal" in2="BackgroundImageFix" result="effect1_dropShadow_111_8"/>
<feBlend mode="normal" in="SourceGraphic" in2="effect1_dropShadow_111_8" result="shape"/>
</filter>
</defs>
</svg>
